PathFileType	4	(X/Y/Z)	E:\Marcel_BSc\Ayumi_22_01_2025\22-01-2025\sumo_dl_1.trc
DataRate	CameraRate	NumFrames	NumMarkers	Units	OrigDataRate	OrigDataStartFrame	OrigNumFrames
200.0	200.0	5	47	mm	200.0	1643	2190	
Frame#	Time	FHD			LBHD			RBHD			RBAR			LBAR			RSACR			LSACR			USACR			C7			CLAV			T10			RSHO			LSHO			LTHI1			LTHI3			LTHI2			LTIB1			LTIB2			LTIB3			LMMAL			LLMAL			LHEE			LMT1			LMT5			LMT3			RTHI1			RTHI2			RTHI3			RTIB1			RTIB3			RTIB2			RLMAL			RMMAL			RHEE			RMT5			RMT1			RMT3			LDUPA			LMUPA			LUUPA			LRAD			RUL			RRAD			RUFIN			RMUPA			RDUPA			RUUPA			
		X1	Y1	Z1	X2	Y2	Z2	X3	Y3	Z3	X4	Y4	Z4	X5	Y5	Z5	X6	Y6	Z6	X7	Y7	Z7	X8	Y8	Z8	X9	Y9	Z9	X10	Y10	Z10	X11	Y11	Z11	X12	Y12	Z12	X13	Y13	Z13	X14	Y14	Z14	X15	Y15	Z15	X16	Y16	Z16	X17	Y17	Z17	X18	Y18	Z18	X19	Y19	Z19	X20	Y20	Z20	X21	Y21	Z21	X22	Y22	Z22	X23	Y23	Z23	X24	Y24	Z24	X25	Y25	Z25	X26	Y26	Z26	X27	Y27	Z27	X28	Y28	Z28	X29	Y29	Z29	X30	Y30	Z30	X31	Y31	Z31	X32	Y32	Z32	X33	Y33	Z33	X34	Y34	Z34	X35	Y35	Z35	X36	Y36	Z36	X37	Y37	Z37	X38	Y38	Z38	X39	Y39	Z39	X40	Y40	Z40	X41	Y41	Z41	X42	Y42	Z42	X43	Y43	Z43	X44	Y44	Z44	X45	Y45	Z45	X46	Y46	Z46	X47	Y47	Z47	
1643	8.205	-116.68916	1085.2223	-1003.2743	-97.015701	1076.7303	-941.66437	-73.049156	1060.0863	-1072.066	212.50461	286.4389	-2121.9385	266.53418	286.35342	98.470184	510.94501	752.41034	-1070.3508	515.02704	754.17029	-998.0802	503.4808	761.7774	-1033.699	108.65143	970.91553	-997.14984	84.478844	818.59875	-1002.657	351.15485	873.25952	-1030.7046	48.239902	835.99341	-1150.1439	99.542595	840.59888	-840.56866	430.77106	531.14154	-703.13293	398.16409	480.06995	-677.14502	375.68274	524.2287	-666.1308	323.94379	245.724	-534.09241	357.70883	232.00728	-569.34387	331.31412	179.79465	-539.76105	272.43872	72.905151	-578.88361	332.05429	71.525101	-533.89355	334.73099	33.055363	-587.36554	187.38657	44.871632	-458.15863	256.12732	24.29324	-414.78259	208.89453	39.711525	-431.54739	407.31308	522.03046	-1345.3944	352.27472	519.97357	-1382.5581	370.63882	473.81165	-1370.2944	305.27356	273.30588	-1475.0469	321.07718	209.69099	-1463.9232	345.40012	268.42154	-1446.5596	333.41043	72.265167	-1451.1991	261.60788	72.005356	-1416.1744	338.1236	31.630423	-1392.4156	259.68079	25.741039	-1565.9817	200.09116	34.891869	-1533.7174	222.05438	33.445129	-1555.6243	257.11157	691.68176	-787.80096	208.85884	680.07428	-789.62628	193.48952	739.81128	-791.4881	270.53601	362.85599	-753.14441	185.56792	357.83575	-1296.5312	184.35596	350.16086	-1234.4259	192.76849	274.63522	-1236.338	125.13998	753.39276	-1232.6947	144.39175	696.07501	-1250.2784	169.82921	771.03125	-1245.3889
1644	8.21	-116.93529	1083.931	-1003.101	-97.232994	1075.4941	-941.4361	-73.327377	1058.8318	-1071.8843	212.34843	285.26935	-2122.0496	266.47308	285.31436	98.366226	510.87357	751.82245	-1070.5148	514.96368	753.61633	-998.2724	503.35092	761.18481	-1033.8992	108.44714	969.63824	-997.14142	84.382614	817.42389	-1002.5392	351.04761	872.39203	-1030.8384	47.992561	834.70068	-1149.9496	98.423111	839.8465	-841.06812	430.71069	531.04175	-703.13361	398.10556	480.04724	-677.05902	375.57376	524.23199	-666.1778	323.80588	245.67467	-534.21692	357.60968	232.04135	-569.29272	331.27673	179.88112	-539.66663	272.42343	72.896393	-578.87665	332.04379	71.520164	-533.86627	334.72354	33.058674	-587.34552	187.4332	45.080635	-458.20935	256.06689	25.084782	-415.3392	208.89314	39.689873	-431.51593	406.97614	521.85126	-1345.2397	351.98251	519.849	-1382.636	370.34827	473.70218	-1370.447	304.92142	273.29321	-1475.0054	320.87656	209.62489	-1463.9385	345.10419	268.45853	-1446.5205	333.32364	72.294022	-1451.2341	261.56796	71.949081	-1416.1506	338.14539	31.380936	-1392.9736	259.61691	25.792892	-1565.9862	200.05537	34.87738	-1533.7192	222.07222	33.474972	-1555.629	257.24377	690.71484	-787.90137	209.08226	678.98767	-789.58905	193.63504	738.75256	-791.42975	270.46884	361.70828	-753.22229	185.33662	356.90836	-1296.577	184.19679	349.05685	-1234.5302	192.65358	273.50482	-1236.4099	124.87494	752.2356	-1232.6829	144.1636	694.99231	-1250.3063	169.58861	769.82727	-1245.4194
1645	8.215	-117.23269	1082.7365	-1002.8943	-97.444565	1074.3026	-941.14471	-73.606995	1057.5814	-1071.7236	212.12944	284.21143	-2122.177	266.37216	284.06262	98.230812	510.86194	751.20679	-1070.7017	514.8382	753.2265	-998.40247	503.28403	760.54828	-1034.0481	108.25957	968.98425	-996.95654	84.280807	816.39349	-1002.3229	350.9115	872.30273	-1030.6031	47.755241	833.32599	-1149.7397	99.458809	838.08313	-840.29535	430.60489	530.96136	-703.14069	398.03357	480.00195	-676.96246	375.49661	524.18243	-666.17902	323.79202	245.70366	-534.05859	357.52298	232.06093	-569.27576	331.2265	179.89252	-539.59222	272.43237	72.911156	-578.82495	332.09399	71.537819	-533.80511	334.73035	33.047222	-587.31866	187.54579	45.172493	-458.24643	256.26334	24.944275	-415.38943	208.90771	39.689915	-431.49527	406.73865	521.70123	-1345.5598	351.65155	519.76697	-1382.6941	370.04077	473.57132	-1370.5972	304.55423	273.30737	-1474.8895	320.63678	209.62628	-1463.9606	344.77408	268.44055	-1446.5409	333.28134	72.302132	-1451.2893	261.54089	71.898598	-1416.146	338.13821	31.377993	-1392.9827	259.58514	25.80801	-1565.9821	200.01666	34.858448	-1533.7201	222.02811	33.481712	-1555.6356	257.40881	689.60577	-788.02008	209.21857	677.90668	-789.58258	193.75299	737.62885	-791.35504	269.94739	360.48642	-753.24841	185.18785	355.90067	-1296.6161	184.1442	347.93134	-1234.6224	192.46283	272.34845	-1236.62	124.64803	751.09888	-1232.673	144.05646	693.80017	-1250.4045	169.46898	768.58997	-1245.4181
1646	8.22	-117.439	1081.3253	-1002.7902	-97.804237	1073.0192	-941.04956	-73.879333	1056.3551	-1071.566	211.9832	283.02307	-2122.2583	266.26379	282.89026	98.126144	510.76852	750.68707	-1070.8314	514.80609	752.63489	-998.58173	503.23563	759.89642	-1034.2585	107.75423	967.78778	-996.80457	84.275078	815.10974	-1002.4056	350.71503	871.5722	-1030.7994	47.534435	832.06464	-1149.6027	98.392395	837.37177	-840.68738	430.56223	530.8269	-703.14288	397.98477	479.9884	-676.883	375.46713	524.16187	-666.21283	323.83203	245.70377	-533.84515	357.48035	232.08582	-569.19708	331.20325	179.87717	-539.55975	272.40356	72.923943	-578.79791	332.099	71.528694	-533.77667	334.72363	33.066174	-587.29352	187.72864	45.47459	-458.38693	261.41174	22.856569	-410.76971	208.96884	39.674236	-431.50952	406.52808	521.53412	-1345.6255	351.40945	519.71881	-1382.6997	369.84457	473.45117	-1370.7268	304.29233	273.35797	-1474.7709	320.41968	209.60211	-1464.0315	344.56204	268.46143	-1446.5631	333.25775	72.319626	-1451.3176	261.4375	71.86132	-1416.1835	338.11514	31.396975	-1392.9999	259.564	25.824198	-1565.9756	200.01497	34.891216	-1533.7277	222.01105	33.485558	-1555.6328	257.55609	688.64935	-788.13165	209.36682	676.83667	-789.49182	193.89624	736.5506	-791.25806	270.32614	359.41031	-753.41632	185.09833	354.74908	-1296.687	183.9554	346.81778	-1234.7225	192.39728	271.27451	-1236.6368	124.47478	749.95477	-1232.7145	143.94112	692.67126	-1250.4967	169.32118	767.4411	-1245.4257
1647	8.225	-117.76788	1080.0793	-1002.6432	-98.034241	1071.5955	-940.96332	-74.150482	1055.132	-1071.4193	211.77238	281.89297	-2122.3767	266.15237	281.71014	98.020287	510.69577	750.20367	-1070.955	514.81531	752.00281	-998.78363	503.11642	759.43945	-1034.3538	107.46504	966.25574	-997.02631	84.194733	813.914	-1002.4202	350.57147	870.84784	-1030.8081	47.29269	830.90924	-1149.5577	99.760147	834.90869	-840.33466	430.46558	530.7218	-703.17102	397.94598	479.94995	-676.80682	375.39618	524.10168	-666.25598	323.59335	245.69016	-533.90375	357.42453	232.13194	-569.17004	331.17874	179.95201	-539.51172	272.78519	72.518791	-578.91614	332.09625	71.530342	-533.73749	334.73026	33.045227	-587.28131	187.81952	45.634567	-458.39682	256.12558	24.954994	-415.31403	208.97937	39.664272	-431.4978	406.37665	521.31403	-1345.8116	351.25998	519.60809	-1382.7136	369.6525	473.32437	-1370.8317	304.02176	273.4223	-1474.7695	320.18091	209.63255	-1464.1049	344.31183	268.43173	-1446.6433	333.19577	72.350075	-1451.3502	261.35904	71.839851	-1416.1962	338.1134	31.409681	-1392.9983	259.56766	25.846176	-1565.9829	200.01147	34.891239	-1533.7333	222.01476	33.467472	-1555.6443	257.63501	687.38251	-788.31073	209.41118	675.69458	-789.50952	193.89925	735.4505	-791.24506	269.95819	358.21091	-753.34344	185.0842	353.49969	-1296.8215	183.98596	345.75238	-1234.7935	192.26109	270.22156	-1236.7278	124.33563	748.75049	-1232.813	143.81389	691.56012	-1250.5858	169.0742	766.50885	-1245.3375
